Here is our third new 720p remastered version with even a better quality than our previous 1080p version.This means that you will get better quality than the original DVD and btw,we used another soft to create it.With more settings option,result is forcibly a bit better as well.
However this time,we used E-AC3 sound codec aka Dolby Digital Plus in 32 bit depht limited to 512 kbps speed for a better compatibility with most media player.(When we use more than 512 kbps speed,compatibility is broken and make more problems so.)
720p screen resolution seems get better fit than 1080p for a remastered DVD but our test has been sucessfull anyway.Still no sub.

More details for this new version :


    Complete name : 
Internal_Affairs.(1990).(M.Figgis).Remastered_DVDrip-H264-HD.720p[)(]E-AC3-5.1-(En,Fr)-RC1.mkv

    Format : Matroska
    Format version : Version 2
    File size : 11.8 GiB
    Duration : 1h 50mn
    Overall bit rate mode : Variable
    Overall bit rate : 15.3 Mbps
    Encoded date : UTC 2013-02-20 03:44:09
    Writing application : Lavf54.61.104
    Writing library : Lavf54.61.104

  Video #1
    ID : 1
    Format : AVC
    Format/Info : Advanced Video Codec
    Format profile : High@L4.1
    Format settings, CABAC : No
    Format settings, ReFrames : 4 frames
    Codec ID : V_MPEG4/ISO/AVC
    Duration : 1h 50mn
    Bit rate mode : Variable
    Bit rate : 14.0 Mbps
    Nominal bit rate : 15.0 Mbps
    Maximum bit rate : 24.0 Mbps
    Width : 1 280 pixels
    Height : 720 pixels
    Display aspect ratio : 16:9
    Frame rate mode : Constant
    Frame rate : 25.000 fps
    Color space : YUV
    Chroma subsampling : 4:2:0
    Bit depth : 8 bits
    Scan type : Progressive
    Bits/(Pixel*Frame) : 0.608
    Stream size : 10.8 GiB (91%)
    Writing library : x264 core 129 r2230
    Encoding settings : cabac=0 / ref=5 / deblock=1:-1:-1 / analyse=0x3:0x133 / me=umh / subme=7 / psy=1 / psy_rd=1.00:0.10 / mixed_ref=1 / me_range=16 / chroma_me=1 / trellis=1 / 8x8dct=1 / cqm=0 / deadzone=21,11 / fast_pskip=1 / chroma_qp_offset=-3 / threads=12 / lookahead_threads=2 / sliced_threads=0 / nr=0 / decimate=1 / interlaced=0 / bluray_compat=1 / constrained_intra=0 / bframes=3 / b_pyramid=1 / b_adapt=2 / b_bias=0 / direct=3 / weightb=1 / open_gop=0 / weightp=1 / keyint=250 / keyint_min=1 / scenecut=40 / intra_refresh=0 / rc_lookahead=50 / rc=abr / mbtree=1 / bitrate=15000 / ratetol=1.0 / qcomp=0.60 / qpmin=10 / qpmax=69 / qpstep=4 / vbv_maxrate=24000 / vbv_bufsize=24000 / nal_hrd=vbr / ip_ratio=1.40 / aq=1:1.00
    Default : Yes
    Forced : No

  Audio #2
    ID : 2
    Format : E-AC-3
    Format/Info : Audio Coding 3
    Format settings, Endianness : Big
    Codec ID : A_EAC3
    Duration : 1h 50mn
    Bit rate mode : Constant
    Bit rate : 512 Kbps
    Channel(s) : 6 channels
    Channel positions : Front: L C R, Side: L R, LFE
    Sampling rate : 48.0 KHz
    Bit depth : 32 bits
    Compression mode : Lossy
    Delay relative to video : 1mn 5s
    Stream size : 403 MiB (3%)
    Language : English
    Default : Yes
    Forced : No

  Audio #3
    ID : 3
    Format : E-AC-3
    Format/Info : Audio Coding 3
    Format settings, Endianness : Big
    Codec ID : A_EAC3
    Duration : 1h 50mn
    Bit rate mode : Constant
    Bit rate : 512 Kbps
    Channel(s) : 6 channels
    Channel positions : Front: L C R, Side: L R, LFE
    Sampling rate : 48.0 KHz
    Bit depth : 32 bits
    Compression mode : Lossy
    Delay relative to video : 1mn 5s
    Stream size : 403 MiB (3%)
    Language : French
    Default : Yes
    Forced : No

Final size : 11,7 Go
(still somewhat as a quite large size for but quality is better : 15-16)
Acceptable gain of size compared to 1080p version.

you can choose between both versions so.

enjoy and regards

seed,please.
 
Few screeenshots will be available in a few minutes concerning both versions.